HIERARCHY
ROOT Hips
{
	OFFSET 0.000000 0.000000 0.000000
	CHANNELS 6 Xposition Yposition Zposition Zrotation Yrotation Xrotation 
	JOINT LHipJoint
	{
		OFFSET 0.000000 0.000000 0.000000
		CHANNELS 3 Zrotation Yrotation Xrotation
		JOINT LeftUpLeg
		{
			OFFSET 1.363060 -1.794630 0.839290
			CHANNELS 3 Zrotation Yrotation Xrotation
			JOINT LeftLeg
			{
				OFFSET 2.448110 -6.726130 0.000000
				CHANNELS 3 Zrotation Yrotation Xrotation
				JOINT LeftFoot
				{
					OFFSET 2.562200 -7.039590 0.000000
					CHANNELS 3 Zrotation Yrotation Xrotation
					JOINT LeftToeBase
					{
						OFFSET 0.157640 -0.433110 2.322550
						CHANNELS 3 Zrotation Yrotation Xrotation
						End Site
						{
							OFFSET 0.000000 0.000000 0.000000
						}
					}
				}
			}
		}
	}
	JOINT RHipJoint
	{
		OFFSET 0.000000 0.000000 0.000000
		CHANNELS 3 Zrotation Yrotation Xrotation
		JOINT RightUpLeg
		{
			OFFSET -1.305520 -1.794630 0.839290
			CHANNELS 3 Zrotation Yrotation Xrotation
			JOINT RightLeg
			{
				OFFSET -2.542530 -6.985550 0.000000
				CHANNELS 3 Zrotation Yrotation Xrotation
				JOINT RightFoot
				{
					OFFSET -2.568260 -7.056230 0.000000
					CHANNELS 3 Zrotation Yrotation Xrotation
					JOINT RightToeBase
					{
						OFFSET -0.164730 -0.452590 2.363150
						CHANNELS 3 Zrotation Yrotation Xrotation
						End Site
						{
							OFFSET 0.000000 0.000000 0.000000
						}
					}
				}
			}
		}
	}
	JOINT LowerBack
	{
		OFFSET 0.000000 0.000000 0.000000
		CHANNELS 3 Zrotation Yrotation Xrotation
		JOINT Spine
		{
			OFFSET 0.028270 2.035590 -0.193380
			CHANNELS 3 Zrotation Yrotation Xrotation
			JOINT Spine1
			{
				OFFSET 0.056720 2.048850 -0.042750
				CHANNELS 3 Zrotation Yrotation Xrotation
				JOINT Neck
				{
					OFFSET 0.000000 0.000000 0.000000
					CHANNELS 3 Zrotation Yrotation Xrotation
					JOINT Neck1
					{
						OFFSET -0.054170 1.746240 0.172020
						CHANNELS 3 Zrotation Yrotation Xrotation
						JOINT Head
						{
							OFFSET 0.104070 1.761360 -0.123970
							CHANNELS 3 Zrotation Yrotation Xrotation
							End Site
							{
								OFFSET 0.000000 0.000000 0.000000
							}
						}
					}
				}
				JOINT LeftShoulder
				{
					OFFSET 0.000000 0.000000 0.000000
					CHANNELS 3 Zrotation Yrotation Xrotation
					JOINT LeftArm
					{
						OFFSET 3.362410 1.200890 -0.311210
						CHANNELS 3 Zrotation Yrotation Xrotation
						JOINT LeftForeArm
						{
							OFFSET 4.983000 -0.000000 -0.000000
							CHANNELS 3 Zrotation Yrotation Xrotation
							JOINT LeftHand
							{
								OFFSET 3.483560 -0.000000 -0.000000
								CHANNELS 3 Zrotation Yrotation Xrotation
								JOINT LeftFingerBase
								{
									OFFSET 0.000000 0.000000 0.000000
									CHANNELS 3 Zrotation Yrotation Xrotation
									JOINT LeftHandIndex1
									{
										OFFSET 0.715260 -0.000000 -0.000000
										CHANNELS 3 Zrotation Yrotation Xrotation
										End Site
										{
											OFFSET 0.000000 0.000000 0.000000
										}
									}
								}
								JOINT LThumb
								{
									OFFSET 0.000000 0.000000 0.000000
									CHANNELS 3 Zrotation Yrotation Xrotation
									End Site
									{
										OFFSET 0.000000 0.000000 0.000000
									}
								}
							}
						}
					}
				}
				JOINT RightShoulder
				{
					OFFSET 0.000000 0.000000 0.000000
					CHANNELS 3 Zrotation Yrotation Xrotation
					JOINT RightArm
					{
						OFFSET -3.136600 1.374050 -0.404650
						CHANNELS 3 Zrotation Yrotation Xrotation
						JOINT RightForeArm
						{
							OFFSET -5.241900 -0.000000 -0.000000
							CHANNELS 3 Zrotation Yrotation Xrotation
							JOINT RightHand
							{
								OFFSET -3.444170 -0.000000 -0.000000
								CHANNELS 3 Zrotation Yrotation Xrotation
								JOINT RightFingerBase
								{
									OFFSET 0.000000 0.000000 0.000000
									CHANNELS 3 Zrotation Yrotation Xrotation
									JOINT RightHandIndex1
									{
										OFFSET -0.622530 -0.000000 -0.000000
										CHANNELS 3 Zrotation Yrotation Xrotation
										End Site
										{
											OFFSET 0.000000 0.000000 0.000000
										}
									}
								}
								JOINT RThumb
								{
									OFFSET 0.000000 0.000000 0.000000
									CHANNELS 3 Zrotation Yrotation Xrotation
									End Site
									{
										OFFSET 0.000000 0.000000 0.000000
									}
								}
							}
						}
					}
				}
			}
		}
	}
}
MOTION
Frames: 6
Frame Time: 0.008333
0.569304 18.360434 9.545446 -11.296671 -1.388243 14.307867 6.399355 4.902388 -1.409814 -20.261594 -50.082739 23.705056 -4.162876 -2.503185 -3.505872 -11.794194 45.374653 -43.908798 1.382100 7.438900 21.022400 0.340002 -4.494642 0.040701 24.934583 26.856914 -0.250366 3.619874 -0.537896 2.095610 8.106123 -25.948796 -2.021451 -0.000500 -0.149400 0.410400 -1.278106 2.073935 6.727967 23.172884 7.155900 -21.213763 -12.823660 -1.163387 -10.659549 -17.237020 -11.184179 -10.874023 16.722910 -16.977094 25.744736 2.672300 -6.761500 7.928400 -10.635016 -5.684262 1.519503 -86.108040 13.652711 -5.316946 10.851107 -12.585619 -1.860433 -0.204617 2.022567 29.204976 19.529629 -10.993285 -4.738600 -7.125000 0.000000 0.000000 -4.543600 16.495700 3.076200 11.835325 7.164547 1.761356 80.862231 -12.762629 -11.748594 -10.937204 14.634936 -1.803914 1.196026 1.058719 54.115180 5.360178 -28.385618 -2.763300 7.125000 0.000000 0.000000 38.806300 -55.468300 -11.189100 
0.567408 18.361593 9.542496 -11.448456 -1.321615 14.238822 6.516072 4.905663 -1.399038 -20.223428 -50.047180 23.747968 -4.169185 -2.534304 -3.520523 -11.780602 45.347823 -43.916715 1.383200 7.441700 21.030600 0.460640 -4.512106 0.099384 25.000819 26.931178 -0.220228 3.619974 -0.552336 2.113663 8.123423 -26.000100 -2.130232 -0.000300 -0.114400 0.314300 -1.712712 2.019962 6.619916 24.524040 7.198214 -20.852966 -13.045129 -1.325685 -10.791417 -17.761772 -11.078618 -10.747056 16.663401 -16.760266 25.696508 2.754500 -6.684500 7.943400 -10.688137 -5.703432 1.455712 -86.614108 13.679868 -5.668735 10.889380 -12.620855 -1.871501 -0.209302 2.027919 29.141267 19.597573 -10.989377 -4.756700 -7.125000 0.000000 0.000000 -4.493000 16.488900 3.042500 11.564198 7.223774 1.784284 80.581526 -12.631486 -11.767610 -10.801823 14.484030 -1.769488 1.199798 1.032971 54.484941 5.267091 -28.272436 -2.699700 7.125000 0.000000 0.000000 38.601600 -55.389400 -11.037400 
0.567092 18.361487 9.540284 -11.577353 -1.246333 14.189294 6.618115 4.905469 -1.390220 -20.201073 -50.049826 23.780710 -4.175841 -2.552663 -3.501198 -11.689003 45.221799 -43.965385 1.409100 7.508100 21.229700 0.570734 -4.523225 0.158301 25.019231 26.866305 -0.267391 3.618230 -0.562179 2.115321 8.107857 -25.978303 -2.075678 -0.000100 -0.054900 0.150800 -2.109563 1.950937 6.486589 25.791251 7.202063 -20.498251 -13.232060 -1.495002 -10.928764 -18.317306 -10.973502 -10.681081 16.684123 -16.547204 25.680133 2.856600 -6.599300 7.979500 -10.728306 -5.718500 1.390851 -87.142708 13.733111 -6.100027 10.934144 -12.665540 -1.882183 -0.198035 2.020710 29.180431 19.517899 -10.967184 -4.725300 -7.125000 0.000000 0.000000 -4.555900 16.522100 3.082000 11.307750 7.277200 1.807330 80.237712 -12.536838 -11.439640 -10.682265 14.361067 -1.743636 1.204642 1.024981 54.561703 5.306571 -28.278466 -2.716400 7.125000 0.000000 0.000000 38.635900 -55.387400 -11.047600 
0.567513 18.361171 9.538283 -11.652146 -1.176403 14.119817 6.713946 4.906218 -1.375780 -20.255209 -50.032755 23.826564 -4.181212 -2.569027 -3.471580 -11.648961 45.148758 -43.959062 1.415000 7.523200 21.274900 0.674048 -4.535290 0.226781 24.974934 26.757263 -0.322797 3.616856 -0.568927 2.112505 8.086381 -25.934867 -1.988549 -0.000000 0.022200 -0.061000 -2.521334 1.867119 6.341338 27.013560 7.150127 -20.043494 -13.368092 -1.671515 -11.121142 -18.867619 -10.886080 -10.735642 16.661113 -16.331558 25.746057 2.947400 -6.511600 8.043200 -10.770150 -5.724654 1.317707 -87.693860 13.773099 -6.506137 10.985947 -12.717002 -1.894052 -0.191296 2.012210 29.189341 19.452418 -10.925786 -4.690100 -7.125000 0.000000 0.000000 -4.606600 16.577100 3.111000 11.062828 7.322868 1.823493 79.858910 -12.457118 -10.959465 -10.587957 14.278553 -1.725459 1.206065 1.022968 54.520820 5.355073 -28.277875 -2.739000 7.125000 0.000000 0.000000 38.676500 -55.378200 -11.052900 
0.561404 18.364963 9.539231 -11.308995 -1.293195 14.153827 6.748715 4.919219 -1.371565 -20.814597 -50.217502 23.997891 -4.194848 -2.576568 -3.430230 -11.497674 45.135181 -44.352780 1.443200 7.594600 21.489200 0.769740 -4.530576 0.242919 24.435272 27.121539 -0.334533 3.619867 -0.593575 2.134416 8.199646 -26.177976 -2.162010 -0.001400 -0.245700 0.675100 -3.384750 1.735012 6.075677 27.880361 7.008990 -19.719911 -13.137590 -1.789845 -11.163713 -19.453817 -10.779661 -10.752332 16.773923 -16.121732 25.788944 3.073800 -6.419000 8.099100 -10.805839 -5.742642 1.247174 -88.237332 13.929858 -6.307462 11.142598 -12.881583 -1.938915 -0.169602 2.004463 28.502745 19.243977 -11.264616 -4.756200 -7.125000 0.000000 0.000000 -4.792100 16.224100 3.274000 10.910262 7.351163 1.846217 79.335483 -12.274919 -10.524274 -10.367871 14.031752 -1.673323 1.213379 0.997388 54.589609 5.140442 -28.150040 -2.609000 7.125000 0.000000 0.000000 38.343700 -55.316900 -10.874400 
0.550344 18.374970 9.563036 -11.482657 -1.110031 14.386202 6.952563 4.980902 -1.322494 -20.836210 -50.765288 24.069590 -4.204558 -2.618506 -3.466339 -11.370500 45.206936 -44.890836 1.478700 7.683500 21.756800 1.062856 -4.517588 0.337206 24.300432 27.671726 -0.372838 3.630176 -0.587104 2.064026 8.369981 -26.608918 -2.612122 -0.013000 -0.737100 2.025600 -4.636927 1.378437 4.784267 30.821372 6.748020 -18.525329 -13.222720 -2.194523 -11.007936 -20.698155 -10.586808 -10.719263 16.809932 -15.596626 25.391903 3.305400 -6.219200 8.147200 -10.875919 -5.886112 1.027414 -89.576678 14.087512 -5.594145 11.618590 -13.403458 -2.047504 -0.196522 1.816551 27.089623 18.346344 -10.349882 -4.139900 -7.125000 0.000000 0.000000 -5.460400 17.434900 3.589900 10.315006 7.468848 1.848632 78.361937 -11.840380 -9.518630 -9.989870 13.604676 -1.590806 1.230507 0.940086 54.657697 4.706866 -27.928976 -2.348500 7.125000 0.000000 0.000000 37.696200 -55.221400 -10.555800 
